<?xml version="1.0" encoding="UTF-8"?>
<svg width="43px" height="43px" viewBox="0 0 43 43" version="1.1" xmlns="http://www.w3.org/2000/svg" xmlns:xlink="http://www.w3.org/1999/xlink">
    <title>Why Housing-01</title>
    <g id="Why-Housing-01" stroke="none" stroke-width="1" fill="none" fill-rule="evenodd">
        <g transform="translate(21.000000, 22.000000) rotate(90.000000) translate(-21.000000, -22.000000) translate(5.000000, 6.000000)">
            <path d="M10.7,21.3000012 L2.4,21.3000012 C1.79877706,21.3006214 1.22349309,21.0551601 0.807913958,20.620691 C0.392334823,20.1862219 0.172671349,19.6006018 0.2,18.9999988 L0.2,2.3 C0.172671349,1.69939817 0.392334823,1.1137781 0.807913958,0.679309004 C1.22349309,0.244839908 1.79877706,-0.000621434174 2.4,-1.17709806e-06 L10.7,-1.17709806e-06 L10.7,21.3000012 Z" id="Rectangle-15" fill="#F5C365" fill-rule="nonzero"></path>
            <rect id="Rectangle-15-2" fill="#F5C365" fill-rule="nonzero" x="10.7" y="0" width="10.5" height="21.31"></rect>
            <ellipse id="Oval-2" fill="#986C1A" fill-rule="nonzero" cx="21.2" cy="21.3" rx="10.5" ry="10.7"></ellipse>
            <path d="M29.1,-7.12876044e-07 L10.7,-7.12876044e-07 L31.7,21.3 L31.7,2.7 C31.7272019,1.99327923 31.4653303,1.30597311 30.9747564,0.796530902 C30.4841824,0.287088698 29.8072439,-0.000523310576 29.1,-7.12876044e-07 Z" id="Rectangle-16" fill="#EEA315" fill-rule="nonzero"></path>
            <circle id="Oval" fill="#B88016" cx="16" cy="19" r="12"></circle>
            <g id="iconmonstr-chart-5" transform="translate(9.000000, 13.000000)" fill="#F7E8CC" fill-rule="nonzero">
                <path d="M4,12 L1,12 L1,9 L4,9 L4,12 Z M8,7.5 L5,7.5 L5,12 L8,12 L8,7.5 Z M12,5.5 L9,5.5 L9,12 L12,12 L12,5.5 Z M12,0 L9,0.6105 L9.858,1.4645 L6.433,4.831 L4.9325,3.33 L1.012,7.2285 L1.717,7.9375 L4.9305,4.7425 L6.426,6.239 L10.566,2.1705 L11.3995,3.0005 L12,0 Z" id="Shape" transform="translate(6.500000, 6.000000) rotate(-90.000000) translate(-6.500000, -6.000000) "></path>
            </g>
            <path d="M3.1,6.5 L2.9,6 C2.77468933,5.54327787 2.44104465,5.17256156 2,5 L1.3,4.8 L2.1,4.4 C2.5,4.3 2.7,4 2.9,3.6 L3.1,3.1 L3.3,3.7 C3.42173303,4.02319142 3.67680858,4.27826697 4,4.4 L4.8,4.8 L4.1,5.1 C3.79853481,5.25346756 3.55346756,5.49853481 3.4,5.8 L3.1,6.5 Z" id="Path" fill="#FFFFFF" fill-rule="nonzero"></path>
            <path d="M25.6,6.2 L25.4,5.6 C25.2746893,5.14327787 24.9410446,4.77256156 24.5,4.6 L23.8,4.3 L24.6,4 C24.9886524,3.83586448 25.2825626,3.5052155 25.4,3.1 L25.6,2.5 L25.9,3.1 C25.9804439,3.46919433 26.2447513,3.77125992 26.6,3.9 L27.5,4.3 L26.7,4.7 C26.368944,4.84747517 26.0901156,5.09145004 25.9,5.4 L25.6,6.2 Z" id="Path" fill="#F5C365" fill-rule="nonzero"></path>
        </g>
    </g>
</svg>