<?xml version="1.0" encoding="UTF-8"?>
<svg width="43px" height="43px" viewBox="0 0 43 43" version="1.1" xmlns="http://www.w3.org/2000/svg" xmlns:xlink="http://www.w3.org/1999/xlink">
    <title>Why Housing-03</title>
    <g id="Why-Housing-03" stroke="none" stroke-width="1" fill="none" fill-rule="evenodd">
        <g transform="translate(6.000000, 6.000000)" fill-rule="nonzero">
            <path d="M32,21.5 L32,29.3 C31.9461865,30.751977 30.7529736,31.9009969 29.3,31.9000006 L10.7,31.9000006 L10.7,21.5 L32,21.5 Z" id="Rectangle-15" fill="#F5C365"></path>
            <path d="M32.0000007,13.8 L32.0000007,21.5 L10.7,21.5 L10.7,11.2 L29.3,11.2 C30.0067208,11.1727981 30.6940269,11.4346697 31.2034691,11.9252436 C31.7129113,12.4158176 32.0005233,13.0927561 32.0000007,13.8 Z" id="Rectangle-15-2" fill="#F5C365"></path>
            <polygon id="Rectangle-16" fill="#EEA315" points="0.1 31.9 21.4 31.9 0.1 11.2"></polygon>
            <ellipse id="Oval-2" fill="#E8B452" cx="10.7" cy="11.2" rx="10.7" ry="10.4"></ellipse>
            <g id="Group" transform="translate(0.000000, 3.000000)">
                <circle id="Oval" fill="#267546" cx="10.9" cy="8.4" r="7"></circle>
                <path d="M18.4,11.2 C17.2302962,14.2991945 14.3107642,16.3902107 11,16.5 C7.67335035,16.5760985 4.6469497,14.5850454 3.4,11.5 L3.4,11.5 C3.25276982,11.0789387 3.15216826,10.6429986 3.1,10.2 L3.1,10.2 C2.90603621,9.00985158 2.87240368,7.79908065 3,6.6 L3.1,6.6 C3.13920603,6.22886805 3.2060584,5.86118003 3.3,5.5 C4.41416944,2.34405561 7.35460184,0.198334671 10.7,0.1 C14.0266497,0.0239015025 17.0530503,2.01495456 18.3,5.1 L18.3,5.1 C18.4472302,5.52106127 18.5478317,5.95700136 18.6,6.4 C18.8601645,7.58589884 18.8601645,8.81410116 18.6,10 C18.5585073,10.4037907 18.4917093,10.8045787 18.4,11.2 L18.4,11.2 Z" id="Path" fill="#B88016"></path>
                <path d="M3.9,15.9 L0.7,23.8 L5.1,23 L7.7,26.3 L10.8,18.6 C8.24652392,18.5776199 5.79052894,17.6165784 3.9,15.9 Z" id="Path" fill="#B88016"></path>
                <path d="M8.7,7.5 L9.4,7.3 L10.2,5.6 L10.2,3.9 L10.6,3.9 C11.1698005,3.98261967 11.6173803,4.43019947 11.7,5 L11.7,6.7 L13.8,6.7 C14.1038091,6.69384783 14.3939335,6.82617016 14.5884672,7.05961063 C14.783001,7.2930511 14.8608366,7.60228078 14.8,7.9 L14.8,11.2 C14.7746519,11.4922162 14.6336479,11.762207 14.4083181,11.9499818 C14.1829884,12.1377565 13.8919968,12.2277622 13.6,12.2 L8.7,11.5 L8.7,7.5 Z" id="Path" fill="#F7E8CC"></path>
                <polygon id="Path" fill="#B88016" points="8.9 7.3 8.9 11.4 9.9 11.6"></polygon>
                <rect id="Rectangle" fill="#F7E8CC" transform="translate(7.650000, 9.265000) rotate(-180.000000) translate(-7.650000, -9.265000) " x="6.4" y="6.83" width="2.5" height="4.87" rx="0.5"></rect>
                <path d="M17.9,15.9 L21.1,23.8 L16.7,23 L14,26.3 L11,18.6 C13.5534761,18.5776199 16.0094711,17.6165784 17.9,15.9 Z" id="Path" fill="#B88016"></path>
            </g>
            <path d="M24.8,9.4 L24.6,8.8 C24.4774194,8.36361188 24.1363881,8.02258055 23.7,7.9 L23.1,7.7 L23.8,7.3 C24.1608657,7.14797705 24.4479771,6.86086571 24.6,6.5 L24.8,5.9 L25,6.5 C25.1190822,6.84832554 25.3705644,7.13573372 25.7,7.3 L26.5,7.7 L25.8,8 C25.4768086,8.12173303 25.221733,8.37680858 25.1,8.7 L24.8,9.4 Z" id="Path" fill="#F5C365"></path>
            <path d="M26.7,23.5 L26.7,22.9 C26.527713,22.4372571 26.1627429,22.072287 25.7,21.9 L25,21.6 L25.8,21.3 C26.1886524,21.1358645 26.4825626,20.8052155 26.6,20.4 L26.8,19.8 L27.1,20.4 C27.1985842,20.7938755 27.5061245,21.1014158 27.9,21.2 L28.7,21.6 L27.9,22 C27.5768086,22.121733 27.321733,22.3768086 27.2,22.7 L26.7,23.5 Z" id="Path" fill="#FFFFFF"></path>
        </g>
    </g>
</svg>