<?xml version="1.0" encoding="UTF-8"?>
<svg width="43px" height="43px" viewBox="0 0 43 43" version="1.1" xmlns="http://www.w3.org/2000/svg" xmlns:xlink="http://www.w3.org/1999/xlink">
    <title>Why Housing-02</title>
    <g id="Why-Housing-02" stroke="none" stroke-width="1" fill="none" fill-rule="evenodd">
        <g transform="translate(22.000000, 22.000000) rotate(90.000000) translate(-22.000000, -22.000000) translate(6.000000, 6.000000)">
            <path d="M10.7,21.3000012 L2.4,21.3000012 C1.79877706,21.3006214 1.22349309,21.0551601 0.807913958,20.620691 C0.392334823,20.1862219 0.172671349,19.6006018 0.2,18.9999988 L0.2,2.3 C0.172671349,1.69939817 0.392334823,1.1137781 0.807913958,0.679309004 C1.22349309,0.244839908 1.79877706,-0.000621434174 2.4,-1.17709806e-06 L10.7,-1.17709806e-06 L10.7,21.3000012 Z" id="Rectangle-15" fill="#F5C365" fill-rule="nonzero"></path>
            <rect id="Rectangle-15-2" fill="#F5C365" fill-rule="nonzero" x="10.7" y="0" width="10.5" height="21.31"></rect>
            <ellipse id="Oval-2" fill="#986C1A" fill-rule="nonzero" cx="21.2" cy="21.3" rx="10.5" ry="10.7"></ellipse>
            <path d="M29.1,-7.12876044e-07 L10.7,-7.12876044e-07 L31.7,21.3 L31.7,2.7 C31.7272019,1.99327923 31.4653303,1.30597311 30.9747564,0.796530902 C30.4841824,0.287088698 29.8072439,-0.000523310576 29.1,-7.12876044e-07 Z" id="Rectangle-16" fill="#EEA315" fill-rule="nonzero"></path>
            <circle id="Oval" fill="#B88016" cx="16" cy="19" r="12"></circle>
            <path d="M16.1,27 C14.5832702,27.005328 13.094768,26.5899321 11.8,25.7999484 C10.5609081,25.0282742 9.53064446,23.9636685 8.8,22.6999484 C8.70678977,22.3960986 8.82998149,22.0675874 9.1,21.8999484 C9.22342342,21.7906994 9.39276049,21.7492979 9.55266838,21.7892749 C9.71257627,21.8292519 9.84250829,21.9454706 9.9,22.0999484 C10.9487183,24.0758729 12.8786466,25.4315715 15.0931457,25.7479285 C17.3076448,26.0642855 19.5399716,25.3031948 21.1,23.6999484 C22.4556725,22.3489749 23.2176777,20.513839 23.2176777,18.5999484 C23.2176777,16.6860578 22.4556725,14.8509219 21.1,13.4999484 C18.3103249,10.8075931 13.8896751,10.8075931 11.1,13.4999484 C9.74132394,14.8474878 8.98411868,16.6864148 9,18.5999484 C9,18.9313193 8.73137085,19.1999484 8.4,19.1999484 C8.06862915,19.1999484 7.8,18.9313193 7.8,18.5999484 C7.80479941,17.473262 8.00789864,16.3562162 8.4,15.2999484 C9.28176437,13.3115297 10.8922709,11.7368122 12.9,10.8999484 C14.9322887,9.97137576 17.2677113,9.97137576 19.3,10.8999484 C20.3135148,11.3092006 21.2324154,11.9218009 22,12.6999484 C23.5086425,14.2979456 24.3647716,16.4025963 24.4,18.5999484 C24.4312873,19.7398607 24.1913693,20.8709027 23.7,21.8999484 C23.2896006,22.8893515 22.7148294,23.8022234 22,24.5999484 C21.1806714,25.3129332 20.2732662,25.91787 19.3,26.3999484 C18.2805928,26.7995318 17.1949192,27.0030956 16.1,27 Z" id="Path" fill="#F7E8CC" fill-rule="nonzero"></path>
            <polygon id="Path" fill="#F7E8CC" fill-rule="nonzero" points="6 16.4999484 11.2 16.6999484 8.4 20.0999484"></polygon>
            <g id="iconmonstr-database-17" transform="translate(16.600000, 18.699948) rotate(-90.000000) translate(-16.600000, -18.699948) translate(12.600000, 13.699948)" fill="#F7E8CC" fill-rule="nonzero">
                <path d="M8,7.422 L8,8.405 C8,9.176 6.138,9.801 4,9.801 C1.862,9.801 0,9.176 0,8.405 L0,7.422 C0.968,8.117 2.801,8.324 4,8.324 C5.202,8.324 7.035,8.116 8,7.422 L8,7.422 Z M4,6.059 C2.798,6.059 0.965,5.85 0,5.157 L0,6.13 C0,6.901 1.862,7.526 4,7.526 C6.138,7.526 8,6.901 8,6.13 L8,5.157 C7.032,5.852 5.199,6.059 4,6.059 Z M4,0.199 C1.862,0.199 0,0.824 0,1.595 C0,2.365 1.862,2.99 4,2.99 C6.138,2.99 8,2.365 8,1.595 C8,0.824 6.138,0.199 4,0.199 Z M4,3.79 C2.798,3.79 0.965,3.581 0,2.888 L0,3.865 C0,4.635 1.862,5.26 4,5.26 C6.138,5.26 8,4.635 8,3.865 L8,2.888 C7.032,3.583 5.199,3.79 4,3.79 Z" id="Shape"></path>
            </g>
            <path d="M3.1,6.5 L2.9,6 C2.77468933,5.54327787 2.44104465,5.17256156 2,5 L1.3,4.8 L2.1,4.4 C2.5,4.3 2.7,4 2.9,3.6 L3.1,3.1 L3.3,3.7 C3.42173303,4.02319142 3.67680858,4.27826697 4,4.4 L4.8,4.8 L4.1,5.1 C3.79853481,5.25346756 3.55346756,5.49853481 3.4,5.8 L3.1,6.5 Z" id="Path" fill="#FFFFFF" fill-rule="nonzero"></path>
            <path d="M25.6,6.2 L25.4,5.6 C25.2746893,5.14327787 24.9410446,4.77256156 24.5,4.6 L23.8,4.3 L24.6,4 C24.9886524,3.83586448 25.2825626,3.5052155 25.4,3.1 L25.6,2.5 L25.9,3.1 C25.9804439,3.46919433 26.2447513,3.77125992 26.6,3.9 L27.5,4.3 L26.7,4.7 C26.368944,4.84747517 26.0901156,5.09145004 25.9,5.4 L25.6,6.2 Z" id="Path" fill="#F5C365" fill-rule="nonzero"></path>
        </g>
    </g>
</svg>